<svg xmlns="http://www.w3.org/2000/svg" xmlns:xlink="http://www.w3.org/1999/xlink" viewBox="0 0 402.5 77.4"><defs><style>.cls-1,.cls-11,.cls-17,.cls-25,.cls-26,.cls-27,.cls-37,.cls-39,.cls-40,.cls-41,.cls-42,.cls-43,.cls-44,.cls-46,.cls-47,.cls-48,.cls-49,.cls-5,.cls-7,.cls-9{fill:none;}.cls-2{fill:url(#linear-gradient);}.cls-3{fill:url(#linear-gradient-2);}.cls-4{fill:#ffda15;}.cls-11,.cls-16,.cls-17,.cls-19,.cls-25,.cls-26,.cls-27,.cls-37,.cls-41,.cls-42,.cls-43,.cls-44,.cls-5,.cls-7,.cls-9{stroke:#231f20;}.cls-11,.cls-16,.cls-17,.cls-19,.cls-25,.cls-26,.cls-27,.cls-37,.cls-38,.cls-39,.cls-40,.cls-41,.cls-42,.cls-43,.cls-44,.cls-46,.cls-47,.cls-48,.cls-49,.cls-5,.cls-7,.cls-9{stroke-miterlimit:10;}.cls-5{stroke-width:2px;}.cls-6{fill:#9a3474;}.cls-7{stroke-width:1.77px;}.cls-8{fill:#231f20;}.cls-9{stroke-width:1.79px;}.cls-10{fill:#46bda6;}.cls-11{stroke-width:1.81px;}.cls-12{fill:#819ccb;}.cls-13{fill:#d36baa;}.cls-14{clip-path:url(#clip-path);}.cls-15{fill:#d4de25;}.cls-16{fill:#e6e1db;}.cls-16,.cls-17,.cls-19,.cls-40,.cls-48{stroke-width:0.5px;}.cls-18{fill:#f8bacd;}.cls-19{fill:#d2d0cc;}.cls-20{fill:#ec008c;}.cls-21{fill:#673695;}.cls-22{fill:#fec00f;}.cls-23{fill:#dc3f28;}.cls-24{fill:#f59726;}.cls-25{stroke-width:0.9px;}.cls-26{stroke-width:1.07px;}.cls-27{stroke-width:1.76px;}.cls-28{fill:#f04f4e;}.cls-29{fill:#ed1e24;}.cls-30{fill:#00a5e8;}.cls-31{fill:#3c2711;}.cls-32{fill:#146031;}.cls-33{fill:#805f4b;}.cls-34{fill:#922424;}.cls-35{fill:#ccab8a;}.cls-36{fill:#f4a847;}.cls-37,.cls-47{stroke-width:0.75px;}.cls-38{fill:#1b75bc;stroke:#caeaf9;}.cls-38,.cls-42{stroke-width:0.25px;}.cls-39,.cls-40{stroke:#f2c5dc;}.cls-41{stroke-width:0.53px;}.cls-43{stroke-width:0.48px;}.cls-44{stroke-width:1.65px;}.cls-45{fill:#b73834;}.cls-46,.cls-47,.cls-48{stroke:#821718;}.cls-49{stroke:#f04f4e;stroke-width:0.51px;}.cls-50{fill:url(#linear-gradient-3);}.cls-51{fill:url(#linear-gradient-4);}.cls-52{fill:url(#linear-gradient-5);}.cls-53{fill:url(#linear-gradient-6);}.cls-54{fill:url(#linear-gradient-7);}.cls-55{fill:url(#linear-gradient-8);}.cls-56{fill:url(#linear-gradient-9);}</style><linearGradient id="linear-gradient" x1="129.18" y1="90.96" x2="135.63" y2="29.64" gradientUnits="userSpaceOnUse"><stop offset="0" stop-color="#77c043"/><stop offset="1" stop-color="#35a248"/></linearGradient><linearGradient id="linear-gradient-2" x1="262.44" y1="89.45" x2="267.46" y2="32.08" xlink:href="#linear-gradient"/><clipPath id="clip-path"><path class="cls-1" d="M265.2,20.2c1-.9,16.3-.7,17.1,0,3,2.4-2.8,20-2.8,20l-11.2-.7S262.8,22.1,265.2,20.2Z"/></clipPath><linearGradient id="linear-gradient-3" x1="324.74" y1="40.38" x2="327.87" y2="40.38" gradientTransform="matrix(1, 0, 0, 1, 0.27, -0.96)" gradientUnits="userSpaceOnUse"><stop offset="0" stop-color="#fbaf47"/><stop offset="1" stop-color="#ce5427"/></linearGradient><linearGradient id="linear-gradient-4" x1="324.74" y1="21.62" x2="327.33" y2="21.62" gradientTransform="translate(1.1 81.8) rotate(-10.9)" xlink:href="#linear-gradient-3"/><linearGradient id="linear-gradient-5" x1="328.31" y1="55.55" x2="331.41" y2="55.55" gradientTransform="translate(11 -74.4) rotate(10.1)" xlink:href="#linear-gradient-3"/><linearGradient id="linear-gradient-6" x1="327.84" y1="56.03" x2="330.46" y2="56.03" gradientTransform="translate(12.2 -81) rotate(11.1)" xlink:href="#linear-gradient-3"/><linearGradient id="linear-gradient-7" x1="321.65" y1="14.72" x2="324.68" y2="14.72" gradientTransform="matrix(0.97, -0.24, 0.24, 0.97, 5.22, 100.29)" xlink:href="#linear-gradient-3"/><linearGradient id="linear-gradient-8" x1="331.16" y1="-14.16" x2="334.3" y2="-14.16" gradientTransform="matrix(0.84, -0.55, 0.55, 0.84, 51.15, 233.45)" xlink:href="#linear-gradient-3"/><linearGradient id="linear-gradient-9" x1="321.82" y1="41.24" x2="324.7" y2="41.24" gradientTransform="matrix(1, 0, 0, 1, 0, 0)" xlink:href="#linear-gradient-3"/></defs><title>Asset 1</title><g id="Layer_2" data-name="Layer 2"><g id="Layer_2-2" data-name="Layer 2"><path class="cls-2" d="M263,60.1c0-15.6-58.8-26.9-131.3-28.3C31.5,29.9,0,77.4,0,77.4H233.3a18.8,18.8,0,0,0,5.2-.8C253.9,72,263,66.3,263,60.1Z"/><path class="cls-3" d="M321.3,37.1C288.9,30,124.5,58.7,124.5,77.4h278S355.3,44.5,321.3,37.1Z"/></g><g id="Layer_3" data-name="Layer 3"><path class="cls-4" d="M99.7,50.1c2.1-5.2,3.5-6.8,5.9-4.3.9-2.6-.4-8.4-3.5-7S100.4,44.2,99.7,50.1Z"/><path class="cls-4" d="M78.8,46.7c-.3-6,.5-11-3.9-10.7,1.2-1,4.3-2.8,6.1-1.8S84.6,38.2,78.8,46.7Z"/><path class="cls-5" d="M181.1,18.2c7.9-2.3,13.7,5.7,13,9.4"/><path class="cls-6" d="M192,22.8c1.1-.3,2.4.9,2.9,2.8s.1,3.5-1,3.8-2.3-.9-2.9-2.7S191,23.2,192,22.8Z"/><path class="cls-7" d="M126.1,52.6c-3.6,6.3-12.2,4.6-14,1.8"/><path class="cls-8" d="M116.3,56.2c-.5.9-2,.9-3.5,0s-2.1-2.2-1.6-3,2-.9,3.5,0S116.9,55.4,116.3,56.2Z"/><path class="cls-7" d="M136.1,49.9c3.6,6.2,12.2,4.6,14,1.7"/><path class="cls-8" d="M145.9,53.5c.5.8,2,.8,3.5,0s2.2-2.3,1.7-3.1-2.1-.8-3.6,0S145.4,52.6,145.9,53.5Z"/><path class="cls-5" d="M183.6,20.6c6.6,4.8,14.8-.7,15.4-4.5"/><path class="cls-6" d="M195.4,19.9c.9.7,2.6,0,3.7-1.5s1.3-3.3.4-4-2.6.1-3.7,1.6S194.5,19.3,195.4,19.9Z"/><path class="cls-5" d="M289.4,64.6c5.3-32.2-28.5-48.2-32.4-.7"/><path class="cls-9" d="M180,62.9c2.3-17.2,3.8-27.3-5.7-29.6-13.2-3.3-15,7.1-16.5,29.3"/><path class="cls-5" d="M278.2,21.1c7-3.8,15-5.6,16.8-2.2"/><path class="cls-10" d="M291.7,16.4c.8-.8,2.5-.2,3.7,1.3s1.5,3.2.6,3.9-2.5.1-3.7-1.3S290.8,17.1,291.7,16.4Z"/><path class="cls-11" d="M269.5,21.6c-4.6-5.1-10.6-8.4-12.8-5.5"/><path class="cls-10" d="M260,14.3c-.5-.8-2-.6-3.3.6s-1.9,2.8-1.4,3.7,2,.6,3.3-.6S260.5,15.2,260,14.3Z"/><path class="cls-12" d="M265.2,20.2c1-.9,16.3-.7,17.1,0,3,2.4-2.8,20-2.8,20l-11.2-.7S262.8,22.1,265.2,20.2Z"/><path class="cls-13" d="M171.9,13.8c1.4-.4,15.5,5.4,16,6.3,1.9,3.3-9.8,17.6-9.8,17.6l-10.2-2.9S169,14.8,171.9,13.8Z"/><g class="cls-14"><path class="cls-15" d="M266.9,23.1a1.1,1.1,0,0,1-2.2,0,1.1,1.1,0,0,1,2.2,0Z"/><path class="cls-15" d="M269.5,20.9a1.1,1.1,0,1,1-1.1-1.1A1.1,1.1,0,0,1,269.5,20.9Z"/><path class="cls-15" d="M266.2,19.5a1.1,1.1,0,0,1-1.1,1.1,1.1,1.1,0,0,1,0-2.2A1.1,1.1,0,0,1,266.2,19.5Z"/><path class="cls-15" d="M268.4,25.9a1.1,1.1,0,1,1-2.2,0,1.1,1.1,0,0,1,2.2,0Z"/><path class="cls-15" d="M271,23.8a1,1,0,0,1-1,1.1,1.1,1.1,0,0,1,0-2.2A1,1,0,0,1,271,23.8Z"/><path class="cls-15" d="M274.6,23.1a1.1,1.1,0,0,1-2.2,0,1.1,1.1,0,0,1,2.2,0Z"/><path class="cls-15" d="M272.8,20.2a1.1,1.1,0,1,1-1.1-1.1A1.1,1.1,0,0,1,272.8,20.2Z"/><path class="cls-15" d="M273,25.9a1.1,1.1,0,0,1-1.1,1.1,1,1,0,0,1-1-1.1.9.9,0,0,1,1-1A1,1,0,0,1,273,25.9Z"/><path class="cls-15" d="M276.8,20.9a1,1,0,0,1-1,1.1,1.1,1.1,0,0,1,0-2.2A1,1,0,0,1,276.8,20.9Z"/><path class="cls-15" d="M277.2,25.6a1.1,1.1,0,0,1-2.2,0,1.1,1.1,0,0,1,2.2,0Z"/><path class="cls-15" d="M275.2,28.9a1.1,1.1,0,1,1-1.1-1.1A1.1,1.1,0,0,1,275.2,28.9Z"/><path class="cls-15" d="M278.3,31.3a1.1,1.1,0,1,1-1.1-1.1A1.1,1.1,0,0,1,278.3,31.3Z"/><path class="cls-15" d="M276.5,34.5a1.1,1.1,0,1,1-1.1-1.1A1.1,1.1,0,0,1,276.5,34.5Z"/><path class="cls-15" d="M279.3,36.1a1.1,1.1,0,0,1-1,1.1,1.1,1.1,0,0,1-1.1-1.1,1.1,1.1,0,0,1,1.1-1A1.1,1.1,0,0,1,279.3,36.1Z"/><path class="cls-15" d="M282.7,30.4a1,1,0,0,1-1,1.1,1.1,1.1,0,0,1,0-2.2A1,1,0,0,1,282.7,30.4Z"/><path class="cls-15" d="M281.3,33.7a1.1,1.1,0,1,1-1.1-1.1A1.1,1.1,0,0,1,281.3,33.7Z"/><path class="cls-15" d="M279.7,23.8a1.1,1.1,0,1,1-1.1-1.1A1.1,1.1,0,0,1,279.7,23.8Z"/><path class="cls-15" d="M279.7,20.2a1.1,1.1,0,1,1-1.1-1.1A1.1,1.1,0,0,1,279.7,20.2Z"/><path class="cls-15" d="M283.2,21.6a1.1,1.1,0,0,1-1,1.1,1.1,1.1,0,0,1-1.1-1.1,1.1,1.1,0,0,1,1.1-1A1.1,1.1,0,0,1,283.2,21.6Z"/><path class="cls-15" d="M284.7,27.5a1.1,1.1,0,0,1-2.2,0,1.1,1.1,0,0,1,2.2,0Z"/><path class="cls-15" d="M282.5,25.6a1.1,1.1,0,0,1-1.1,1,1,1,0,0,1-1-1,1,1,0,0,1,1-1.1A1.1,1.1,0,0,1,282.5,25.6Z"/><path class="cls-15" d="M279.7,27.8a1.1,1.1,0,1,1-2.2,0,1.1,1.1,0,0,1,2.2,0Z"/><circle class="cls-15" cx="266.2" cy="29.1" r="1.1"/><path class="cls-15" d="M273.8,32.4a1,1,0,0,1-1,1,1.1,1.1,0,0,1-1.1-1,1.1,1.1,0,0,1,1.1-1.1A1,1,0,0,1,273.8,32.4Z"/><path class="cls-15" d="M269,32.4a1,1,0,0,1-1,1,1.1,1.1,0,0,1-1.1-1,1.1,1.1,0,0,1,1.1-1.1A1,1,0,0,1,269,32.4Z"/><circle class="cls-15" cx="272.8" cy="36.6" r="1.1"/><path class="cls-15" d="M268,36.6a1.1,1.1,0,1,1-2.2,0,1.1,1.1,0,0,1,2.2,0Z"/><path class="cls-15" d="M271.5,38.7a1.1,1.1,0,0,1-2.2,0,1.1,1.1,0,0,1,2.2,0Z"/><path class="cls-15" d="M276.2,39.1a1,1,0,0,1-1,1.1,1.1,1.1,0,0,1-1.1-1.1,1,1,0,0,1,1.1-1A.9.9,0,0,1,276.2,39.1Z"/><path class="cls-15" d="M271.4,34.8a1,1,0,0,1-1,1,1,1,0,0,1-1.1-1,1.1,1.1,0,0,1,1.1-1.1A1.1,1.1,0,0,1,271.4,34.8Z"/><path class="cls-15" d="M280.1,40.1a1.1,1.1,0,0,1-2.2,0,1.1,1.1,0,0,1,2.2,0Z"/><path class="cls-15" d="M271.4,29.3a1.1,1.1,0,0,1-1,1.1,1.1,1.1,0,0,1-1.1-1.1,1,1,0,0,1,1.1-1A1,1,0,0,1,271.4,29.3Z"/></g><path class="cls-16" d="M263,49.7a10.5,10.5,0,1,1,21-1.1c.3,6-2.4,10.3-9.9,10.7S263.4,57.1,263,49.7Z"/><path class="cls-17" d="M278.2,45.6c-1.7-4.4-7.4-5.6-9.9.9"/><path class="cls-8" d="M277.3,48.5a.8.8,0,0,1,.8-.9,1,1,0,0,1,1,.8,1.1,1.1,0,0,1-.9,1A.9.9,0,0,1,277.3,48.5Z"/><path class="cls-18" d="M279.5,47.7a1.6,1.6,0,0,1,1.6-1.6,1.6,1.6,0,0,1,1.8,1.4,1.7,1.7,0,0,1-3.4.2Z"/><path class="cls-18" d="M264,47.8a1.7,1.7,0,0,1,3.3-.2,1.7,1.7,0,0,1-1.6,1.7A1.6,1.6,0,0,1,264,47.8Z"/><path class="cls-8" d="M267.4,49.1a1.1,1.1,0,0,1,.9-1,.9.9,0,0,1,.9.9.8.8,0,0,1-.8.9A.9.9,0,0,1,267.4,49.1Z"/><path class="cls-19" d="M160,44.3a10.5,10.5,0,1,1,21,1.3c-.4,6-3.6,9.9-11.1,9.5S159.6,51.7,160,44.3Z"/><path class="cls-17" d="M177,41.2c-1.1-4.6-9-6.6-12.2-.5"/><path class="cls-8" d="M174.3,44.8a.9.9,0,0,1,1-.8.9.9,0,1,1-.1,1.7A.9.9,0,0,1,174.3,44.8Z"/><path class="cls-18" d="M176.7,44.3a1.5,1.5,0,0,1,1.7-1.5,1.6,1.6,0,0,1,1.6,1.7,1.7,1.7,0,0,1-3.3-.2Z"/><path class="cls-18" d="M161.2,42.5A1.6,1.6,0,0,1,163,41a1.6,1.6,0,1,1-.2,3.2A1.6,1.6,0,0,1,161.2,42.5Z"/><path class="cls-8" d="M164.5,44.2a.9.9,0,0,1,.9-.9,1.1,1.1,0,0,1,.9,1,.9.9,0,0,1-1,.8A.8.8,0,0,1,164.5,44.2Z"/><path class="cls-5" d="M328.7,54.1c2.7,7.5,2,14.7-1.6,16"/><path class="cls-5" d="M319.5,51.1c.6,8-2,14.6-5.8,14.9"/><path class="cls-20" d="M326.7,44.2a5.7,5.7,0,0,0-3.4.7,5.8,5.8,0,0,0-2.9-2.4c-2.5-.7-5.1.4-5.8,2.6l-.7,2.1c-.6,2.2-.6,4.4,3.3,5.4s3.8.5,4.3-.6c-.3,1.6,2.1,2.4,3.8,2.7s4.5.4,5.3-3.5l.3-2.2C331.2,46.7,329.3,44.6,326.7,44.2Z"/><path class="cls-5" d="M309.1,16.4c0,18.2,23.6,34.1,41.3,3.5"/><path class="cls-21" d="M330.4,50.5c-1.3.5-15.8-4.7-16.2-5.7s8.7-13.7,8.7-13.7l9.8,1.8S333.3,49.4,330.4,50.5Z"/><path class="cls-16" d="M339.5,23.5a10.5,10.5,0,1,1-21,0c0-6,3-10.1,10.5-10.1S339.5,16.1,339.5,23.5Z"/><path class="cls-22" d="M340,21.9c-4-1.3-14.9-3.3-22,0,0-6.1,4.7-10.3,11-10.3S339.8,15.1,340,21.9Z"/><path class="cls-23" d="M263,50.5c2.3.7,9.5-.1,11.5,6,2.3-7.3,6.5-6.4,9.7-7.9,0,6.1-3.8,12.2-10.1,12.2S263.2,57.3,263,50.5Z"/><path class="cls-24" d="M159.6,45.2c.9.4,3-.8,3.8.9a3.7,3.7,0,0,1,3.8.4c.7-.7,2.6-.2,3.3.6.6-1.1,2.8-.5,3.2-.2s1.9-.2,3,0a3.4,3.4,0,0,1,2.4-.7c.5-1,1.3-.7,2.2-.9.4,6.9-5.1,10.5-11.4,10.2S159.2,52,159.6,45.2Z"/><path class="cls-22" d="M315.1,3.9c0,7.1,2,12.9,4.5,12.9"/><path class="cls-22" d="M341.2,4.6c0,6.5-1.4,11.8-3.2,11.8"/><path class="cls-22" d="M340.1,2.2c-.3,3.7,2,3.3,3.2,1.7"/><path class="cls-22" d="M313,2.6c1.7,3.3,3.4,1.6,3.5-.4"/><path class="cls-17" d="M323,27.2c1.4,4.5,9.3,6,12.1-.3"/><path class="cls-8" d="M325.2,23.9a.9.9,0,1,1-.9-.9A.9.9,0,0,1,325.2,23.9Z"/><path class="cls-18" d="M322.9,24.6a1.6,1.6,0,0,1-1.7,1.5,1.6,1.6,0,0,1-1.6-1.5,1.6,1.6,0,0,1,1.6-1.6A1.6,1.6,0,0,1,322.9,24.6Z"/><path class="cls-18" d="M338.5,25.4a1.7,1.7,0,1,1-1.7-1.6A1.7,1.7,0,0,1,338.5,25.4Z"/><path class="cls-8" d="M335.1,23.9a.9.9,0,1,1-.9-.9A.9.9,0,0,1,335.1,23.9Z"/><path class="cls-25" d="M350.3,17.3c-.5,1.6-2,5.3,2.8,2"/><path class="cls-25" d="M348.4,17.9c.5,2.2.7,4.3,3.8-.6"/><path class="cls-26" d="M308.3,14c.7,1.6,2.9,5.3-3.9,2"/><path class="cls-26" d="M311,14.6c-.7,2.2-.9,4.3-5.4-.6"/><path class="cls-25" d="M256.2,66.2c.5-1.6,2-5.3-2.8-2"/><path class="cls-25" d="M258.1,65.6c-.5-2.2-.7-4.3-3.8.6"/><path class="cls-25" d="M158.6,64.7c-.2-1.7-.6-5.6-3.4-.5"/><path class="cls-25" d="M160,63.3c-1.4-1.8-2.5-3.5-3,2.3"/><path class="cls-26" d="M290,66.4c-.8-1.6-2.9-5.3,3.9-2"/><path class="cls-26" d="M287.3,65.8c.6-2.2.9-4.3,5.3.6"/><path class="cls-26" d="M178.7,65.2c.6-1.6,1.7-5.7,4.2,1.3"/><path class="cls-26" d="M177.2,62.9c2-1.1,3.6-2.4,3.4,4.2"/><path class="cls-9" d="M114.9,5.5c-.1,17.4-.3,27.6,9.3,28.7,13.6,1.6,14.1-9,12.8-31.1"/><path class="cls-25" d="M135.9,1.1c.5,1.6,1.4,5.5,3.4.1"/><path class="cls-25" d="M134.7,2.7c1.6,1.5,3,3.1,2.8-2.7"/><path class="cls-26" d="M116,3c-.4,1.8-1,6-4.4-.7"/><path class="cls-26" d="M117.7,5.1c-1.9,1.4-3.3,2.9-3.9-3.7"/><path class="cls-21" d="M330.1,67.1c.6,1-.3,2.5-1.9,3.5s-3.4,1-4,0,.3-2.5,1.9-3.5S329.5,66.1,330.1,67.1Z"/><path class="cls-21" d="M317.8,62.8c.6,1-.3,2.5-1.9,3.5s-3.4,1-4,0,.3-2.5,1.9-3.5S317.2,61.8,317.8,62.8Z"/><path class="cls-27" d="M94.6,19.1c-4.9-5-10.7-7.2-13.1-4.8"/><path class="cls-28" d="M86,13.4c-.3-.9-1.8-1.3-3.4-.8s-2.6,1.7-2.3,2.6,1.8,1.3,3.4.8S86.3,14.4,86,13.4Z"/><path class="cls-27" d="M88.6,21.9c-5.8-3.8-12.1-4.6-13.9-1.8"/><path class="cls-28" d="M78.9,18.2c-.5-.8-2-.8-3.4,0s-2.2,2.2-1.7,3.1,2,.8,3.4,0S79.4,19.1,78.9,18.2Z"/><path class="cls-5" d="M217.9,46.5c-2.3,6.7,3.6,14.9-3.7,16.1"/><path class="cls-5" d="M212.5,41.1c-4.9,6.2-11.3,9.4-14.3,7"/><path class="cls-29" d="M223,38.8a4.7,4.7,0,0,0-3.2-1.4,5.3,5.3,0,0,0-1.1-3.7,4.5,4.5,0,0,0-6.2-1.1l-1.7,1.3c-1.8,1.5-3.1,3.3-.4,6.4s2.9,2.5,3.9,1.9c-1.1,1.1.3,3.1,1.6,4.3s3.4,3,6.3.2l1.5-1.6A4.6,4.6,0,0,0,223,38.8Z"/><path class="cls-5" d="M213.3,7.3c-4.6,17.6,20.6,40.4,39,14"/><path class="cls-30" d="M222.5,46c-1.4-.3-10.4-12.8-10.1-13.9s14.2-7.4,14.2-7.4l5.9,5.2S225.5,46.7,222.5,46Z"/><path class="cls-31" d="M132.8,42.2a4.6,4.6,0,0,0-2.6,1.9,5.2,5.2,0,0,0-3.5-1.1,4.3,4.3,0,0,0-4,4.6l.3,2.1c.2,2.3,1.1,4.4,5,3.8s3.4-1,3.4-2.2c.4,1.5,2.7,1.4,4.4,1s4-1.2,3.1-5.2l-.6-2A4.4,4.4,0,0,0,132.8,42.2Z"/><path class="cls-32" d="M139.3,46.6c-1.2.2-16.6,2.5-17.2,2.3-2.5-.8,1.7-17.3,1.7-17.3l7.5-2.1S140.4,46.4,139.3,46.6Z"/><path class="cls-25" d="M252.9,18.7c-.9,1.5-3.3,4.6,2.2,2.7"/><path class="cls-25" d="M250.9,18.8c-.1,2.3-.5,4.3,3.9.4"/><path class="cls-26" d="M213.1,4.8c.4,1.7,1.5,5.8-4.2.9"/><path class="cls-26" d="M215.6,6c-1.2,2-2,4-5-1.9"/><path class="cls-21" d="M217.9,60.5c.3,1-.9,2.3-2.8,2.9s-3.5,0-3.8-1,.9-2.4,2.7-2.9S217.6,59.4,217.9,60.5Z"/><path class="cls-21" d="M203.4,48.6c-.2,1-1.9,1.6-3.7,1.2s-3.2-1.5-3-2.6,1.9-1.7,3.8-1.3S203.6,47.5,203.4,48.6Z"/><path class="cls-23" d="M263,50.7c-3.2.8-7,3.9-9.1,3.9s-3.7-1.3-3.7-2.7,1.5-4.2,3.7-4.2S263,49.3,263,50.7Z"/><path class="cls-24" d="M159.8,45.3c-2.3.9-4,5.3-5.5,5.3a1.5,1.5,0,0,1-.4-1.7,5.1,5.1,0,0,1,0-4.2c-.2-1.1.1-2.4,1.7-2.4S159.8,43.9,159.8,45.3Z"/><path class="cls-24" d="M181,45.3c1.5,3.2,4,6.7,5.4,6.7a3.1,3.1,0,0,0,.2-2.5,4.6,4.6,0,0,0,.1-3.8c.2-1.1-.4-3.4-1.8-3.4S182.5,43.3,181,45.3Z"/><path class="cls-19" d="M78.7,49c.4-6,5.4-10.6,11.1-10.2a10.8,10.8,0,0,1,9.9,11.5c-.4,6-3.7,10-11.1,9.5S78.2,56.4,78.7,49Z"/><path class="cls-17" d="M95.7,45.9c-1.1-4.5-9-6.6-12.3-.5"/><path class="cls-8" d="M93,49.5a.8.8,0,0,1,.9-.8.9.9,0,0,1,.9.9,1,1,0,0,1-1,.9A1,1,0,0,1,93,49.5Z"/><path class="cls-18" d="M95.3,49a1.7,1.7,0,0,1,3.4.2,1.6,1.6,0,0,1-1.8,1.4A1.6,1.6,0,0,1,95.3,49Z"/><path class="cls-18" d="M79.8,47.2a1.7,1.7,0,0,1,1.8-1.4,1.6,1.6,0,0,1,1.6,1.6,1.6,1.6,0,0,1-1.8,1.5A1.7,1.7,0,0,1,79.8,47.2Z"/><path class="cls-8" d="M83.1,48.9a.9.9,0,0,1,1-.8.8.8,0,0,1,.8.9.9.9,0,0,1-.9.9A1.1,1.1,0,0,1,83.1,48.9Z"/><path class="cls-4" d="M78.3,49.9c.9.4,2.9-.8,3.8.9,1-.5,3.1-.4,3.8.4s2.6-.2,3.2.6c.7-1.1,2.9-.5,3.3-.2s1.8-.2,3,0a3.8,3.8,0,0,1,2.4-.7c.5-1,1.2-.7,2.1-.9.4,7-5,10.6-11.4,10.2S77.9,56.7,78.3,49.9Z"/><path class="cls-25" d="M76.6,65.6c-.3-1.6-.7-5.6-3.4-.4"/><path class="cls-25" d="M78,64.2c-1.4-1.7-2.5-3.5-3.1,2.3"/><path class="cls-26" d="M96.8,65.3c.6-1.6,1.7-5.7,4.2,1.4"/><path class="cls-26" d="M95.3,63c2.1-1.1,3.7-2.4,3.4,4.2"/><path class="cls-23" d="M284.3,48.7c3.2-1,8.1-.5,9.9-1.7s2.4-3,1.6-4.2-3.5-2.7-5.4-1.6S283.6,47.6,284.3,48.7Z"/><path class="cls-33" d="M244.4,27a10.7,10.7,0,0,1-15.1,1.5,10.7,10.7,0,0,1-.8-15.2c3.9-4.5,8.9-5.7,14.5-.8S249.2,21.4,244.4,27Z"/><path class="cls-17" d="M229.4,19c-1.8,4.4,3.2,10.7,9.4,7.8"/><path class="cls-8" d="M233.3,18a.9.9,0,0,1-1.3.1,1,1,0,0,1-.1-1.3,1.1,1.1,0,0,1,1.3-.1A.9.9,0,0,1,233.3,18Z"/><path class="cls-34" d="M231.1,17a1.7,1.7,0,0,1-2.5-2.2,1.7,1.7,0,0,1,2.3-.1A1.6,1.6,0,0,1,231.1,17Z"/><path class="cls-34" d="M242.4,27.8a1.7,1.7,0,0,1-2.3.1,1.7,1.7,0,0,1-.3-2.3,1.6,1.6,0,0,1,2.3-.1A1.6,1.6,0,0,1,242.4,27.8Z"/><path class="cls-8" d="M240.8,24.4a.9.9,0,0,1-1.3.1.8.8,0,0,1-.1-1.2.9.9,0,0,1,1.3-.1A.8.8,0,0,1,240.8,24.4Z"/><path class="cls-35" d="M136.7,22.5a10.5,10.5,0,1,1-21,.3c-.1-6,2.8-10.2,10.3-10.3S136.5,15.1,136.7,22.5Z"/><path class="cls-17" d="M119.5,26.4c1.5,4.4,9.4,5.8,12.1-.5"/><path class="cls-8" d="M122.2,21.1a.9.9,0,1,1-.9-.9A.9.9,0,0,1,122.2,21.1Z"/><path class="cls-36" d="M119.9,23a1.7,1.7,0,0,1-3.4.1,1.6,1.6,0,0,1,1.7-1.6A1.6,1.6,0,0,1,119.9,23Z"/><path class="cls-36" d="M134.5,22.8a1.7,1.7,0,0,1-1.6,1.6,1.6,1.6,0,0,1-1.7-1.6,1.6,1.6,0,0,1,1.6-1.6A1.7,1.7,0,0,1,134.5,22.8Z"/><path class="cls-8" d="M130.5,21.1a.9.9,0,1,1-.9-.9A.9.9,0,0,1,130.5,21.1Z"/><path class="cls-37" d="M240.1,7.6c0,1.3-.8,2.4-1.8,2.4"/><path class="cls-37" d="M242,8.8c0,1.3-.8,2.4-1.8,2.4"/><path class="cls-37" d="M243.4,9.7c0,1.3-.8,2.4-1.8,2.4"/><path class="cls-37" d="M244.9,10.9c0,1.3-.8,2.4-1.8,2.4"/><path class="cls-37" d="M245.8,12.1c0,1.3-.8,2.4-1.8,2.4"/><path class="cls-37" d="M247.9,14.4c0,1.3-.8,2.4-1.8,2.4"/><path class="cls-37" d="M247,13.3c0,1.3-.8,2.4-1.7,2.4"/><path class="cls-38" d="M220.5,39.9a6.2,6.2,0,0,1-2.3-8.4,4.9,4.9,0,0,1,6.7-1.9,4,4,0,0,1,1.5,5.4,3.2,3.2,0,0,1-4.3,1.2,2.5,2.5,0,0,1-1-3.4,2,2,0,0,1,2.8-.8,1.6,1.6,0,0,1,.6,2.2,1.4,1.4,0,0,1-1.8.5,1.1,1.1,0,0,1-.4-1.4.9.9,0,0,1,1.2-.3"/><path class="cls-39" d="M170.2,16.8c2.3.6,4.5-.9,4.7,2.2,1.5-1.1,4.1.1,4.3,1.7a2.7,2.7,0,0,1,4.1,1.8c2.2-.8,3.1,1.1,4,1.5"/><path class="cls-40" d="M169.7,18.9c2.3.6,3.8-.9,4,2.2,1.5-1,4.3,0,4.4,1.6a2.8,2.8,0,0,1,4.1,2c2.3-.9,3.1,1.1,4,1.5"/><path class="cls-41" d="M126.3,12.6a3,3,0,0,1-.6-4.2,2.1,2.1,0,0,1,3.1-.5,2,2,0,0,1,.5,2.7,1.5,1.5,0,0,1-2.1.3,1.2,1.2,0,0,1-.2-1.7.9.9,0,0,1,1.3-.2.8.8,0,0,1,.1,1.1"/><path class="cls-42" d="M128.2,13.2a3.1,3.1,0,0,1-.7-4.2,2.2,2.2,0,0,1,3.2-.5,2.1,2.1,0,0,1,.5,2.7,1.5,1.5,0,0,1-2.1.3,1.4,1.4,0,0,1-.3-1.7,1.1,1.1,0,0,1,1.4-.2.8.8,0,0,1,.1,1.1"/><path class="cls-41" d="M129.3,13.6a2.9,2.9,0,0,1-.6-4.1,2.1,2.1,0,0,1,3.1-.5,1.9,1.9,0,0,1,.5,2.7,1.5,1.5,0,0,1-2.1.3,1.2,1.2,0,0,1-.2-1.7.8.8,0,0,1,1.3-.2.8.8,0,0,1,.1,1.1"/><path class="cls-41" d="M123.2,13.4a3,3,0,0,1-1.6-3.9,2.1,2.1,0,1,1,4,1.1,1.5,1.5,0,0,1-1.9.9,1.4,1.4,0,0,1-.7-1.6.9.9,0,0,1,1.2-.6.7.7,0,0,1,.4,1"/><path class="cls-42" d="M122.6,13.8a3.1,3.1,0,0,1-2.6-3.3,2.2,2.2,0,0,1,2.5-2.1,1.9,1.9,0,0,1,1.6,2.1,1.4,1.4,0,0,1-1.6,1.4,1.2,1.2,0,0,1-1-1.4,1,1,0,0,1,1-.9,1,1,0,0,1,.7.9"/><path class="cls-41" d="M120.4,14.3a3.2,3.2,0,0,1-1.7-3.9,2.3,2.3,0,0,1,3-1.4,2,2,0,0,1,1,2.5,1.3,1.3,0,0,1-1.8.9,1.3,1.3,0,0,1-.7-1.6.9.9,0,0,1,1.2-.6.7.7,0,0,1,.4,1"/><path class="cls-41" d="M130.9,14.5a3.3,3.3,0,0,1,.9-4.2,2.2,2.2,0,0,1,3.1.7,2,2,0,0,1-.5,2.7,1.5,1.5,0,0,1-2-.5,1.3,1.3,0,0,1,.3-1.7,1,1,0,0,1,1.3.3.9.9,0,0,1-.2,1.1"/><path class="cls-41" d="M131.8,14.7a3.1,3.1,0,0,1,.8-4.2,2.2,2.2,0,0,1,3.1.7,1.9,1.9,0,0,1-.5,2.6,1.4,1.4,0,0,1-2-.4,1.3,1.3,0,0,1,.3-1.7.9.9,0,0,1,1.3.3.9.9,0,0,1-.2,1.1"/><path class="cls-42" d="M132,14.2a2.6,2.6,0,0,1,3.1-1.9,1.9,1.9,0,0,1,1.4,2.3,1.7,1.7,0,0,1-2,1.2,1.1,1.1,0,0,1-.9-1.5,1.1,1.1,0,0,1,1.3-.7.6.6,0,0,1,.5.9.6.6,0,0,1-.8.5"/><path class="cls-43" d="M129.8,13.5a2.9,2.9,0,0,1,.8-3.8,2,2,0,0,1,2.9.6,1.8,1.8,0,0,1-.5,2.4,1.3,1.3,0,0,1-1.9-.4,1.1,1.1,0,0,1,.4-1.5.7.7,0,0,1,1.1.2c.2.4.2.8-.2,1"/><path class="cls-41" d="M119.2,15.3a3.2,3.2,0,0,1-2.6-3.3,2.3,2.3,0,0,1,2.5-2.1,2,2,0,0,1,1.7,2.1,1.5,1.5,0,0,1-1.6,1.4,1.4,1.4,0,0,1-1.1-1.4,1.1,1.1,0,0,1,1-.9.8.8,0,0,1,.7.9"/><path class="cls-41" d="M127.4,13.9a3.2,3.2,0,0,1-2.6-3.4,2.3,2.3,0,0,1,2.5-2.1,2,2,0,0,1,1.6,2.2,1.5,1.5,0,0,1-1.6,1.3,1.2,1.2,0,0,1-1-1.4.8.8,0,0,1,1-.8.8.8,0,0,1,.7.9"/><path class="cls-42" d="M124.1,13.3a3.3,3.3,0,0,1,.8-4.2,2.3,2.3,0,0,1,3.2.7,2.1,2.1,0,0,1-.5,2.7,1.5,1.5,0,0,1-2.1-.4,1.4,1.4,0,0,1,.4-1.8,1,1,0,0,1,1.3.3.9.9,0,0,1-.2,1.1"/><path class="cls-44" d="M98.7,63.3c2.2-14.7,3.7-23.4-5.7-25.4C79.8,35.1,78,44,76.5,63"/><path class="cls-45" d="M82,20.6c1.3-.5,17.5-3.7,18-2.8,2,3.3-.9,20.6-4.7,22.7a10,10,0,0,0-8.8-1.6C85.9,37.5,79.1,21.5,82,20.6Z"/><path class="cls-46" d="M121.5,48.2c1.3-.4,16.3-2.6,17.6-2.9"/><path class="cls-47" d="M121.3,46.9c1.5-.1,16.5-2.9,17.2-3.1"/><path class="cls-48" d="M121.3,45.8c1.5,0,16.1-2.7,16.8-2.9"/><path class="cls-49" d="M86.8,38.8c-.5-1.8.8-2.4,1.6-1.6.2-1.4,1.2-1.6,1.8-.4.5-1.8,2.1-1.6,2.1.3.7-1.2,1.7-.3,1.9,1,1.3-1.2,1.9.8.9,2.2"/><path class="cls-50" d="M325,40.3c-.1-.5-.1-1.8.6-1.6h1.5a1.2,1.2,0,0,1,.9,1.6h0a1.2,1.2,0,0,1-1.6.9Z"/><path class="cls-51" d="M323.8,40.5c.4-.4,1.4-1.3,1.7-.6l1,1.1a1.2,1.2,0,0,1-.6,1.7h0a1.3,1.3,0,0,1-1.7-.5Z"/><path class="cls-52" d="M325.4,39.6c-.4-.3-1.4-1.2-.8-1.6l.9-1.1a1.4,1.4,0,0,1,1.9.3h0A1.3,1.3,0,0,1,327,39Z"/><path class="cls-53" d="M325.1,38.6c-.6.1-1.9.2-1.7-.5V36.6a1.2,1.2,0,0,1,1.5-1h0a1.2,1.2,0,0,1,1,1.5Z"/><path class="cls-54" d="M324.2,38c-.1.6-.5,1.8-1.1,1.4l-1.4-.5a1.3,1.3,0,0,1-.4-1.8h0a1.2,1.2,0,0,1,1.8-.3Z"/><path class="cls-55" d="M323.1,38.6c.4.4,1.1,1.4.5,1.7l-1.2.9a1.2,1.2,0,0,1-1.7-.7h0a1.3,1.3,0,0,1,.7-1.7Z"/><path class="cls-56" d="M323.2,39.7c.5,0,1.8.4,1.4,1l-.3,1.4a1.4,1.4,0,0,1-1.8.6h0a1.3,1.3,0,0,1-.5-1.8Z"/><path class="cls-15" d="M325.6,39.4a1.3,1.3,0,0,1-1.3,1.3,1.3,1.3,0,0,1-1.4-1.3,1.4,1.4,0,0,1,1.4-1.4A1.3,1.3,0,0,1,325.6,39.4Z"/></g></g></svg>